<svg width="210mm" height="297mm" viewBox="0 0 210 297" xmlns="http://www.w3.org/2000/svg"><path d="M92.01 81.631q1.535 0 2.561 1.069 1.037 1.058 1.037 2.635t-1.037 2.646q-1.026 1.058-2.56 1.058h-2.964v-7.407zm0 5.778q.879 0 1.418-.56.55-.572.55-1.514t-.55-1.503q-.54-.571-1.418-.571h-1.27v4.148zm6.254 0h2.964v1.63h-4.657v-7.407h4.604v1.63h-2.91v1.227h2.645v1.609h-2.646zm5.687 1.63l-2.413-7.408h1.852l1.64 5.45 1.64-5.45h1.853l-2.413 7.408zm5.208-7.408h1.694v7.408h-1.694zm6.491 7.556q-1.662 0-2.762-1.1-1.09-1.112-1.09-2.752t1.09-2.741q1.1-1.111 2.762-1.111.995 0 1.842.465.846.455 1.333 1.25l-1.46.846q-.244-.434-.699-.667-.455-.243-1.016-.243-.984 0-1.577.603-.582.603-.582 1.598t.582 1.598q.593.603 1.577.603.56 0 1.016-.243.466-.244.699-.667l1.46.847q-.476.794-1.323 1.26-.847.454-1.852.454zm5.662-1.778h2.963v1.63h-4.656v-7.407h4.603v1.63h-2.91v1.227h2.646v1.609h-2.646z" font-size="10.583" font-weight="800" letter-spacing="0" stroke-width=".265" word-spacing="0" aria-label="DEVICE"/></svg>