<?xml version="1.0" encoding="UTF-8"?>
<svg width="210mm" height="297mm" version="1.1" viewBox="0 0 210 297" xmlns="http://www.w3.org/2000/svg">
 <g transform="translate(244.14 64.182)" font-size="10.583" font-weight="800" letter-spacing="0" stroke-width=".265" word-spacing="0" aria-label="DEVICE">
  <path d="m-152.13 17.449q1.535 0 2.561 1.069 1.037 1.058 1.037 2.635t-1.037 2.646q-1.026 1.058-2.56 1.058h-2.964v-7.407zm0 5.778q0.879 0 1.418-0.56 0.55-0.572 0.55-1.514t-0.55-1.503q-0.54-0.571-1.418-0.571h-1.27v4.148zm6.254 0h2.964v1.63h-4.657v-7.407h4.604v1.63h-2.91v1.227h2.645v1.609h-2.646zm5.687 1.63-2.413-7.408h1.852l1.64 5.45 1.64-5.45h1.853l-2.413 7.408zm5.208-7.408h1.694v7.408h-1.694zm6.491 7.556q-1.662 0-2.762-1.1-1.09-1.112-1.09-2.752t1.09-2.741q1.1-1.111 2.762-1.111 0.995 0 1.842 0.465 0.846 0.455 1.333 1.25l-1.46 0.846q-0.244-0.434-0.699-0.667-0.455-0.243-1.016-0.243-0.984 0-1.577 0.603-0.582 0.603-0.582 1.598t0.582 1.598q0.593 0.603 1.577 0.603 0.56 0 1.016-0.243 0.466-0.244 0.699-0.667l1.46 0.847q-0.476 0.794-1.323 1.26-0.847 0.454-1.852 0.454zm5.662-1.778h2.963v1.63h-4.656v-7.407h4.603v1.63h-2.91v1.227h2.646v1.609h-2.646z"/>
 </g>
</svg>
